<svg width="206" height="64" viewBox="0 0 206 64" fill="none" xmlns="http://www.w3.org/2000/svg">
<path d="M195.954 0.501217H95.6717H10.32C9.1906 7.45358 0.501217 20.7715 0.501217 30.0701C0.501216 39.5245 8.85351 53.5783 9.98585 60.6472H95.6717H195.62C196.749 53.6948 205.438 40.3769 205.438 31.0783C205.438 21.6239 197.086 7.57012 195.954 0.501217Z" fill="#403629" fill-opacity="0.7" stroke="white" stroke-opacity="0.6"/>
<path d="M156.23 18.0776C156.219 18.0563 156.201 18.0397 156.178 18.0306C153.579 16.8564 150.835 16.0192 148.017 15.5398C147.991 15.5351 147.965 15.5385 147.941 15.5494C147.917 15.5604 147.898 15.5784 147.886 15.6009C147.512 16.2683 147.173 16.9539 146.869 17.655C143.831 17.201 140.741 17.201 137.703 17.655C137.397 16.9521 137.053 16.2663 136.67 15.6009C136.657 15.5789 136.638 15.5613 136.614 15.5504C136.591 15.5395 136.565 15.5358 136.539 15.5398C133.72 16.0182 130.977 16.8555 128.377 18.0307C128.355 18.0399 128.336 18.0558 128.324 18.076C123.125 25.7177 121.701 33.1714 122.4 40.5329C122.402 40.551 122.407 40.5684 122.416 40.5843C122.425 40.6001 122.438 40.6141 122.452 40.6252C125.479 42.8314 128.865 44.5154 132.464 45.6053C132.49 45.6128 132.517 45.6125 132.542 45.6044C132.567 45.5963 132.589 45.5808 132.605 45.5599C133.378 44.5244 134.063 43.4278 134.653 42.2813C134.662 42.2656 134.666 42.2483 134.667 42.2307C134.668 42.2131 134.665 42.1955 134.658 42.1791C134.652 42.1627 134.642 42.1478 134.629 42.1355C134.616 42.1232 134.601 42.1137 134.584 42.1076C133.504 41.7007 132.458 41.2102 131.456 40.6407C131.438 40.6301 131.423 40.6153 131.412 40.5976C131.401 40.5799 131.394 40.5598 131.393 40.539C131.392 40.5183 131.396 40.4976 131.404 40.4787C131.413 40.4598 131.427 40.4434 131.443 40.4308C131.654 40.2758 131.861 40.1161 132.065 39.9517C132.082 39.9373 132.104 39.928 132.127 39.925C132.15 39.9219 132.173 39.9252 132.194 39.9345C138.756 42.8826 145.861 42.8826 152.345 39.9345C152.366 39.9246 152.39 39.9209 152.413 39.9236C152.436 39.9264 152.458 39.9356 152.476 39.9502C152.68 40.1154 152.888 40.2757 153.099 40.4308C153.116 40.4433 153.13 40.4596 153.139 40.4784C153.148 40.4972 153.152 40.5179 153.151 40.5386C153.149 40.5594 153.143 40.5795 153.132 40.5973C153.121 40.6151 153.106 40.63 153.088 40.6407C152.089 41.215 151.042 41.7052 149.959 42.106C149.942 42.1123 149.927 42.1221 149.914 42.1346C149.901 42.1471 149.891 42.1621 149.885 42.1787C149.878 42.1952 149.876 42.2129 149.877 42.2306C149.878 42.2483 149.882 42.2656 149.891 42.2813C150.491 43.4214 151.175 44.5166 151.937 45.5581C151.953 45.5795 151.975 45.5955 152 45.604C152.025 45.6124 152.053 45.6128 152.078 45.6051C155.684 44.5189 159.076 42.8347 162.107 40.6252C162.121 40.6146 162.134 40.601 162.143 40.5854C162.152 40.5697 162.157 40.5524 162.159 40.5345C162.995 32.0238 160.759 24.6312 156.23 18.0776ZM135.633 36.0505C133.658 36.0505 132.03 34.2658 132.03 32.074C132.03 29.8821 133.626 28.0973 135.633 28.0973C137.656 28.0973 139.269 29.8976 139.237 32.0739C139.237 34.2658 137.641 36.0505 135.633 36.0505ZM148.957 36.0505C146.981 36.0505 145.354 34.2658 145.354 32.074C145.354 29.8821 146.95 28.0973 148.957 28.0973C150.98 28.0973 152.592 29.8976 152.561 32.0739C152.561 34.2658 150.98 36.0505 148.957 36.0505Z" fill="white"/>
<path d="M81.4863 47.4149L67.861 27.5509L67.8842 27.5694L80.1695 13.3322H76.0641L66.0561 24.9203L58.1087 13.3322H47.3416L60.0622 31.8778L60.0607 31.8763L46.6445 47.4149H50.7499L61.8763 34.5223L70.7193 47.4149H81.4863ZM56.482 16.4306L75.5993 44.3165H72.3459L53.2131 16.4306H56.482Z" fill="white"/>
</svg>
