<svg width="27" height="27" viewBox="0 0 27 27" fill="none" xmlns="http://www.w3.org/2000/svg">
<g clip-path="url(#clip0_169_430)">
<path d="M13.0429 11.8629C11.6671 10.9272 10.0894 10.3303 8.43874 10.1211C6.57014 10.2312 4.73851 10.6891 3.03794 11.4713L5.56281 2.01994C7.20158 1.07415 9.07255 0.606403 10.9636 0.669739C12.6243 0.706133 14.2255 1.29529 15.5138 2.34398L13.0429 11.8629ZM9.99146 23.1775C8.61466 22.2629 7.04214 21.6848 5.40079 21.4898C3.5322 21.5999 1.70057 22.0578 0 22.84L2.52487 13.3886C4.16364 12.4428 6.03461 11.9751 7.92566 12.0384C9.60036 12.0658 11.2172 12.6555 12.5163 13.7127L9.99146 23.1775ZM13.8935 14.8738C15.2525 15.9314 16.8618 16.6197 18.5652 16.8721C20.4162 16.7987 22.2418 16.4153 23.966 15.7379L21.4411 25.1893C19.7664 26.02 17.9077 26.4103 16.0403 26.3235C14.3083 26.2513 12.6619 25.5505 11.4092 24.3522L13.8935 14.8738ZM16.9315 3.47815C18.2841 4.55132 19.8953 5.24979 21.6032 5.50345C23.4718 5.39336 25.3034 4.93545 27.004 4.15325L24.4791 13.6046C22.8403 14.5504 20.9693 15.0182 19.0783 14.9548C17.3367 14.8781 15.6859 14.1562 14.4471 12.9295L16.9315 3.47815Z" fill="#FBE4C4"/>
</g>
<defs>
<clipPath id="clip0_169_430">
<rect width="27" height="27" fill="white"/>
</clipPath>
</defs>
</svg>
