<svg width="21" height="25" viewBox="0 0 21 25" fill="none" xmlns="http://www.w3.org/2000/svg">
<path d="M0.747402 17.587L0.500371 17.7321L0.500371 18.0185L0.50037 22.764L0.50037 23.6494L1.25886 23.1927L19.2723 12.3459L20.006 11.9041L19.2608 11.4819L6.09766 4.0247L5.35064 3.60151L5.35064 4.46007L5.35064 8.52761L5.35064 8.8081L5.58993 8.95446L10.4194 11.9084L0.747402 17.587ZM1.25409 1.31687L0.500372 0.874354L0.500372 1.74837L0.500371 15.9848L0.500371 16.8588L1.25408 16.4163L4.71807 14.3825L4.9651 14.2375L4.9651 13.951L4.9651 3.78214L4.9651 3.49568L4.71807 3.35064L1.25409 1.31687Z" fill="#A51400" stroke="white"/>
</svg>
