<svg width="24" height="25" viewBox="0 0 24 25" fill="none" xmlns="http://www.w3.org/2000/svg">
<path d="M22.0658 8.35039C22.4485 8.35039 22.773 8.47104 23.0393 8.71234C23.3055 8.95364 23.4386 9.24902 23.4386 9.59847V16.962C23.4386 17.2949 23.3055 17.5819 23.0393 17.8232C22.773 18.0645 22.4485 18.1852 22.0658 18.1852H21.6165C21.2337 18.1852 20.9092 18.0645 20.643 17.8232C20.3767 17.5819 20.2436 17.2949 20.2436 16.962V9.59847C20.2436 9.249 20.3767 8.95362 20.643 8.71234C20.9092 8.47106 21.2337 8.35041 21.6165 8.35039H22.0658ZM1.82217 8.35039C2.20491 8.35039 2.52109 8.47104 2.7707 8.71234C3.02031 8.95364 3.14512 9.24902 3.14512 9.59847V16.962C3.14512 17.2949 3.02031 17.5819 2.7707 17.8232C2.52109 18.0645 2.20491 18.1852 1.82217 18.1852H1.37286C0.990114 18.1852 0.665616 18.0645 0.39936 17.8232C0.133103 17.5819 -1.63956e-05 17.2949 1.5146e-09 16.962V9.59847C1.5146e-09 9.249 0.133128 8.95362 0.399384 8.71234C0.66564 8.47106 0.990139 8.35041 1.37288 8.35039H1.82217ZM15.6008 2.55937C15.9003 2.69251 16.2124 2.87556 16.5369 3.10852C16.8614 3.34147 17.1734 3.61604 17.4729 3.93222C17.7724 4.24841 18.0345 4.59372 18.2592 4.96814C18.4838 5.34257 18.6461 5.73779 18.7459 6.1538H4.5679C4.83416 5.27183 5.25434 4.54796 5.82846 3.98218C6.40257 3.4164 6.98084 2.96709 7.56326 2.63426L6.29024 0.637342C6.25695 0.604055 6.2528 0.541664 6.27777 0.450169C6.30274 0.358673 6.3901 0.262979 6.53986 0.163088C6.67299 0.0466032 6.79779 -0.00748265 6.91428 0.000830678C7.03076 0.00914401 7.10564 0.0299519 7.13891 0.0632544L8.43695 2.11008C8.90289 1.89374 9.39379 1.72732 9.90966 1.61084C10.4255 1.49435 10.958 1.43611 11.5072 1.43611C12.6388 1.43611 13.6954 1.66909 14.6773 2.13504L16.0002 0.0632544C16.0335 0.0299683 16.0959 0.0133253 16.1874 0.0133253C16.2789 0.0133253 16.4162 0.0632544 16.5993 0.163113C16.7657 0.246295 16.8614 0.321173 16.8863 0.387745C16.9113 0.454317 16.9071 0.504246 16.8738 0.537532L15.6008 2.55937ZM8.63659 4.70605C8.85293 4.70605 9.03598 4.63117 9.18574 4.4814C9.33549 4.33162 9.41038 4.14858 9.41039 3.93225C9.41041 3.71592 9.33552 3.53287 9.18574 3.3831C9.03595 3.23333 8.8529 3.15844 8.63659 3.15844C8.42028 3.15844 8.23723 3.23333 8.08744 3.3831C7.93766 3.53287 7.86278 3.71592 7.86281 3.93225C7.86284 4.14858 7.93772 4.33162 8.08744 4.4814C8.23716 4.63117 8.42021 4.70605 8.63659 4.70605ZM14.7771 4.60619C14.9934 4.60619 15.1765 4.53132 15.3262 4.38156C15.476 4.23181 15.5509 4.04875 15.5509 3.83239C15.5509 3.61603 15.476 3.43298 15.3262 3.28324C15.1765 3.1335 14.9935 3.05863 14.7771 3.05861C14.5607 3.05859 14.3777 3.13347 14.2279 3.28324C14.0782 3.43301 14.0033 3.61606 14.0033 3.83239C14.0033 4.04872 14.0782 4.23177 14.2279 4.38156C14.3777 4.53135 14.5607 4.60623 14.7771 4.60619ZM18.7459 7.72637L18.7709 18.959C18.7709 19.325 18.6502 19.6329 18.409 19.8825C18.1677 20.1322 17.8723 20.257 17.5228 20.2569H17.1734V23.7515C17.1734 24.0843 17.0527 24.3755 16.8114 24.6252C16.5701 24.8748 16.2747 24.9996 15.9253 24.9996H15.2014C14.8686 24.9996 14.5815 24.8748 14.3402 24.6252C14.0989 24.3755 13.9783 24.0843 13.9783 23.7515V20.2569H9.38543V23.7515C9.38543 24.0843 9.26479 24.3755 9.0235 24.6252C8.78222 24.8748 8.48684 24.9996 8.13737 24.9996H7.41352C7.08071 24.9996 6.79365 24.8748 6.55235 24.6252C6.31105 24.3755 6.19041 24.0843 6.19043 23.7515V20.2569H5.91584C5.56639 20.2569 5.27101 20.1321 5.02971 19.8825C4.78841 19.6329 4.66777 19.325 4.66779 18.9589V7.72635H18.7459L18.7459 7.72637Z" fill="#FBE4C4"/>
</svg>
