<svg width="25" height="25" viewBox="0 0 25 25" fill="none" xmlns="http://www.w3.org/2000/svg">
<g clip-path="url(#clip0_172_518)">
<path d="M23.5279 8.47331C23.9078 8.47331 24.2299 8.59307 24.4942 8.83259C24.7585 9.07211 24.8906 9.3653 24.8906 9.71218V17.0214C24.8906 17.3517 24.7585 17.6367 24.4942 17.8762C24.2299 18.1157 23.9078 18.2355 23.5279 18.2355H23.0819C22.702 18.2355 22.3799 18.1157 22.1156 17.8762C21.8513 17.6367 21.7191 17.3517 21.7191 17.0214V9.71218C21.7191 9.36529 21.8513 9.07209 22.1156 8.83259C22.3799 8.59309 22.702 8.47333 23.0819 8.47331H23.5279ZM3.43372 8.47331C3.81363 8.47331 4.12747 8.59307 4.37524 8.83259C4.62301 9.07211 4.7469 9.3653 4.7469 9.71218V17.0214C4.7469 17.3517 4.62301 17.6367 4.37524 17.8762C4.12747 18.1157 3.81363 18.2355 3.43372 18.2355H2.98772C2.6078 18.2355 2.2857 18.1157 2.02141 17.8762C1.75712 17.6367 1.62498 17.3517 1.625 17.0214V9.71218C1.625 9.36529 1.75715 9.07209 2.02144 8.83259C2.28573 8.59309 2.60783 8.47333 2.98774 8.47331H3.43372ZM17.1106 2.72504C17.408 2.85721 17.7177 3.0389 18.0398 3.27014C18.3619 3.50137 18.6716 3.77391 18.9689 4.08776C19.2662 4.40161 19.5264 4.74437 19.7494 5.11603C19.9724 5.4877 20.1334 5.88 20.2325 6.29294H6.15918C6.42347 5.41748 6.84055 4.69895 7.41043 4.13735C7.9803 3.57574 8.5543 3.12976 9.13242 2.79938L7.8688 0.817206C7.83576 0.784166 7.83163 0.722236 7.85642 0.631415C7.88121 0.540595 7.96793 0.445608 8.11658 0.346454C8.24872 0.230829 8.37261 0.177143 8.48823 0.185395C8.60386 0.193647 8.67818 0.214301 8.71121 0.247358L9.99966 2.27907C10.4622 2.06433 10.9494 1.89914 11.4615 1.78352C11.9736 1.66789 12.5021 1.61008 13.0472 1.61008C14.1704 1.61008 15.2193 1.84134 16.1939 2.30385L17.5071 0.247358C17.5401 0.214317 17.6021 0.197797 17.6929 0.197797C17.7837 0.197797 17.92 0.247358 18.1017 0.346479C18.2669 0.429047 18.3619 0.503372 18.3866 0.569452C18.4114 0.635533 18.4073 0.685094 18.3743 0.718134L17.1106 2.72504ZM10.1978 4.85588C10.4126 4.85588 10.5943 4.78155 10.7429 4.63288C10.8916 4.48422 10.9659 4.30252 10.9659 4.08779C10.9659 3.87306 10.8916 3.69136 10.7429 3.5427C10.5942 3.39403 10.4125 3.3197 10.1978 3.3197C9.98311 3.3197 9.80142 3.39403 9.65273 3.5427C9.50405 3.69136 9.42973 3.87306 9.42976 4.08779C9.42979 4.30252 9.50412 4.48422 9.65273 4.63288C9.80135 4.78155 9.98305 4.85588 10.1978 4.85588ZM16.293 4.75676C16.5077 4.75676 16.6894 4.68243 16.8381 4.53378C16.9868 4.38513 17.0611 4.20343 17.0611 3.98867C17.061 3.7739 16.9867 3.59221 16.8381 3.44357C16.6895 3.29494 16.5078 3.22062 16.293 3.2206C16.0782 3.22058 15.8965 3.29491 15.7479 3.44357C15.5992 3.59224 15.5249 3.77394 15.5249 3.98867C15.5249 4.2034 15.5992 4.3851 15.7479 4.53378C15.8965 4.68247 16.0782 4.75679 16.293 4.75676ZM20.2325 7.8539L20.2573 19.0036C20.2573 19.3669 20.1375 19.6725 19.898 19.9203C19.6585 20.1681 19.3653 20.292 19.0185 20.2919H18.6716V23.7607C18.6716 24.0911 18.5518 24.3802 18.3123 24.6279C18.0728 24.8757 17.7796 24.9996 17.4327 24.9996H16.7142C16.3838 24.9996 16.0989 24.8757 15.8594 24.6279C15.6199 24.3802 15.5001 24.0911 15.5001 23.7607V20.2919H10.9411V23.7607C10.9411 24.0911 10.8214 24.3802 10.5819 24.6279C10.3424 24.8757 10.0492 24.9996 9.7023 24.9996H8.98379C8.65343 24.9996 8.3685 24.8757 8.12898 24.6279C7.88946 24.3802 7.76971 24.0911 7.76973 23.7607V20.2919H7.49717C7.15029 20.2919 6.8571 20.1681 6.61758 19.9203C6.37806 19.6725 6.25831 19.3669 6.25833 19.0035V7.85388H20.2325L20.2325 7.8539Z" fill="#FBE4C4"/>
</g>
<defs>
<clipPath id="clip0_172_518">
<rect width="25" height="25" fill="white"/>
</clipPath>
</defs>
</svg>
