<svg width="22" height="26" viewBox="0 0 22 26" fill="none" xmlns="http://www.w3.org/2000/svg">
<path d="M14.583 4.16751C15.4227 3.08576 16.0589 1.55846 15.8298 0C14.4546 0.0953209 12.8503 0.971745 11.9153 2.11214C11.0608 3.14625 10.3586 4.68271 10.6318 6.17519C12.1353 6.22285 13.6827 5.32628 14.583 4.16751ZM22.0013 18.8337C21.3999 20.1666 21.112 20.7643 20.3383 21.9451C19.2565 23.5953 17.7347 25.6488 15.848 25.6634C14.1722 25.6818 13.7395 24.5706 11.466 24.5835C9.19248 24.5963 8.7158 25.6854 7.03812 25.6689C5.15148 25.6505 3.71034 23.7987 2.63041 22.1486C-0.389332 17.5392 -0.706505 12.1286 1.15447 9.24999C2.48007 7.20748 4.56844 6.01388 6.53208 6.01388C8.5306 6.01388 9.78654 7.11213 11.4422 7.11213C13.0465 7.11213 14.0237 6.01203 16.3339 6.01203C18.0831 6.01203 19.9368 6.96548 21.2568 8.61561C16.9316 10.99 17.6321 17.178 22.0012 18.8355L22.0013 18.8337Z" fill="#FBE4C4"/>
</svg>
