<svg width="27" height="27" viewBox="0 0 27 27" fill="none" xmlns="http://www.w3.org/2000/svg">
<path d="M16.2419 4.84518C17.0805 3.76497 17.7158 2.23984 17.487 0.683594C16.1138 0.778779 14.5117 1.65396 13.578 2.79273C12.7248 3.82538 12.0236 5.35966 12.2964 6.85001C13.7977 6.8976 15.343 6.0023 16.2419 4.84518ZM23.6497 19.4905C23.0492 20.8216 22.7617 21.4184 21.9891 22.5975C20.9088 24.2453 19.3892 26.2959 17.5052 26.3106C15.8318 26.3289 15.3997 25.2193 13.1294 25.2322C10.8591 25.245 10.3831 26.3325 8.70781 26.316C6.82385 26.2977 5.38476 24.4485 4.30637 22.8008C1.29091 18.1979 0.974186 12.7949 2.83252 9.92044C4.15623 7.88083 6.24164 6.68893 8.20249 6.68893C10.1982 6.68893 11.4523 7.78562 13.1056 7.78562C14.7076 7.78562 15.6835 6.68709 17.9904 6.68709C19.7371 6.68709 21.5881 7.63918 22.9063 9.28697C18.5873 11.658 19.2867 17.8372 23.6497 19.4923V19.4905H23.6497Z" fill="#FBE4C4"/>
</svg>
