<svg width="357" height="130" viewBox="0 0 357 130" fill="none" xmlns="http://www.w3.org/2000/svg">
<g filter="url(#filter0_d_172_533)">
<path d="M3.9818 12.9409C2.00318 6.51034 6.81154 0 13.5396 0H329.614C334.004 0 337.881 2.86323 339.172 7.05914L356.095 62.0591C356.685 63.9754 356.685 66.0246 356.095 67.9409L339.172 122.941C337.881 127.137 334.004 130 329.614 130H13.5396C6.81153 130 2.00318 123.49 3.9818 117.059L19.0951 67.9409C19.6847 66.0246 19.6847 63.9754 19.0951 62.0591L3.9818 12.9409Z" fill="#FEEBDE"/>
<path d="M13.5396 -1C6.13874 -1 0.849539 6.16137 3.02603 13.235L18.1393 62.3532C18.67 64.0778 18.67 65.9221 18.1393 67.6468L3.02602 116.765C0.849537 123.839 6.13873 131 13.5396 131H329.614C334.443 131 338.708 127.85 340.128 123.235L357.051 68.2349C357.699 66.1271 357.699 63.8729 357.051 61.7651L340.128 6.76506C338.708 2.14955 334.443 -1 329.614 -1H13.5396Z" stroke="#6C3400" stroke-width="2"/>
</g>
<defs>
<filter id="filter0_d_172_533" x="1.53125" y="-2" width="357.008" height="138" filterUnits="userSpaceOnUse" color-interpolation-filters="sRGB">
<feFlood flood-opacity="0" result="BackgroundImageFix"/>
<feColorMatrix in="SourceAlpha" type="matrix" values="0 0 0 0 0 0 0 0 0 0 0 0 0 0 0 0 0 0 127 0" result="hardAlpha"/>
<feOffset dy="4"/>
<feComposite in2="hardAlpha" operator="out"/>
<feColorMatrix type="matrix" values="0 0 0 0 0 0 0 0 0 0 0 0 0 0 0 0 0 0 0.25 0"/>
<feBlend mode="normal" in2="BackgroundImageFix" result="effect1_dropShadow_172_533"/>
<feBlend mode="normal" in="SourceGraphic" in2="effect1_dropShadow_172_533" result="shape"/>
</filter>
</defs>
</svg>
