<svg width="356" height="130" viewBox="0 0 356 130" fill="none" xmlns="http://www.w3.org/2000/svg">
<g filter="url(#filter0_d_172_536)">
<path d="M3.7432 12.8057C1.87206 6.40442 6.67241 0 13.3415 0H329.505C333.947 0 337.857 2.9305 339.103 7.19433L355.18 62.1943C355.715 64.0264 355.715 65.9736 355.18 67.8057L339.103 122.806C337.857 127.069 333.947 130 329.505 130H13.3415C6.67242 130 1.87206 123.596 3.7432 117.194L18.1799 67.8057C18.7154 65.9736 18.7154 64.0264 18.1799 62.1943L3.7432 12.8057Z" fill="#FEEBDE"/>
<path d="M4.70303 12.5251C3.01901 6.76398 7.33933 1 13.3415 1H329.505C333.503 1 337.021 3.63745 338.143 7.4749L354.22 62.4749C354.702 64.1238 354.702 65.8762 354.22 67.5251L338.143 122.525C337.021 126.363 333.503 129 329.505 129H13.3415C7.33933 129 3.01901 123.236 4.70303 117.475L19.1397 68.0862C19.7288 66.0709 19.7288 63.9291 19.1397 61.9138L4.70303 12.5251Z" stroke="#6C3400" stroke-width="2"/>
</g>
<defs>
<filter id="filter0_d_172_536" x="3.33594" y="0" width="352.242" height="134" filterUnits="userSpaceOnUse" color-interpolation-filters="sRGB">
<feFlood flood-opacity="0" result="BackgroundImageFix"/>
<feColorMatrix in="SourceAlpha" type="matrix" values="0 0 0 0 0 0 0 0 0 0 0 0 0 0 0 0 0 0 127 0" result="hardAlpha"/>
<feOffset dy="4"/>
<feComposite in2="hardAlpha" operator="out"/>
<feColorMatrix type="matrix" values="0 0 0 0 0 0 0 0 0 0 0 0 0 0 0 0 0 0 0.25 0"/>
<feBlend mode="normal" in2="BackgroundImageFix" result="effect1_dropShadow_172_536"/>
<feBlend mode="normal" in="SourceGraphic" in2="effect1_dropShadow_172_536" result="shape"/>
</filter>
</defs>
</svg>
